<?xml version="1.0" standalone="no"?>
<!DOCTYPE svg PUBLIC "-//W3C//DTD SVG 20010904//EN"
 "http://www.w3.org/TR/2001/REC-SVG-20010904/DTD/svg10.dtd">
<svg version="1.0" xmlns="http://www.w3.org/2000/svg"
 width="400.000000pt" height="400.000000pt" viewBox="0 0 400.000000 400.000000"
 preserveAspectRatio="xMidYMid meet">
<metadata>
Created by potrace 1.11, written by Peter Selinger 2001-2013
</metadata>
<g transform="translate(0.000000,400.000000) scale(0.100000,-0.100000)"
fill="#000000" stroke="none">
<path d="M801 2939 c-52 -10 -144 -39 -151 -48 -3 -3 -22 -14 -43 -24 -55 -25
-138 -89 -172 -131 -21 -26 -30 -50 -32 -84 -4 -54 8 -74 55 -90 34 -11 92 -6
92 9 0 4 9 11 20 14 11 3 20 12 20 20 0 8 8 16 18 19 10 4 28 15 40 26 23 21
103 60 137 67 10 2 22 8 25 13 8 12 109 11 143 -2 31 -12 33 -25 13 -71 -16
-36 -69 -97 -85 -97 -6 0 -11 -4 -11 -9 0 -6 -38 -48 -84 -96 -76 -77 -84 -90
-90 -134 -8 -62 -4 -71 42 -97 47 -26 98 -29 131 -7 14 9 38 18 52 20 15 1 39
8 55 14 16 7 31 13 34 14 3 1 12 4 20 7 8 4 36 11 61 17 26 6 54 13 63 17 26
10 19 -9 -19 -50 -19 -21 -35 -42 -35 -47 0 -5 -6 -9 -13 -9 -7 0 -19 -9 -27
-20 -8 -12 -41 -49 -74 -83 -32 -34 -74 -81 -93 -104 -19 -23 -43 -45 -54 -48
-11 -4 -17 -11 -14 -16 4 -5 2 -9 -4 -9 -12 0 -71 -58 -71 -71 0 -5 -4 -9 -8
-9 -14 0 -87 -70 -84 -81 1 -5 -2 -19 -8 -29 -9 -16 -3 -27 33 -63 69 -70 88
-70 173 0 23 18 46 33 53 33 6 0 14 7 17 15 4 8 14 15 23 15 9 0 33 15 53 33
32 28 150 108 210 143 11 7 25 17 31 23 34 34 17 -27 -19 -65 -6 -7 -17 -27
-24 -46 -7 -18 -20 -51 -30 -73 -15 -34 -16 -41 -4 -48 8 -4 14 -15 14 -22 0
-36 98 -83 115 -56 3 6 12 8 19 5 7 -3 29 9 47 25 18 17 37 31 42 31 4 0 24
17 42 38 33 35 41 34 36 -6 -1 -8 7 -16 18 -19 11 -3 27 -16 36 -29 8 -13 21
-24 28 -24 44 0 91 26 149 83 35 34 79 71 98 81 19 11 37 22 40 25 7 8 113 61
123 61 4 0 0 -8 -8 -17 -8 -10 -28 -36 -45 -58 -30 -40 -169 -185 -177 -185
-2 0 -9 -5 -16 -10 -24 -20 -83 -60 -119 -80 -21 -11 -43 -30 -50 -43 -15 -25
-20 -97 -8 -97 5 0 18 -13 30 -29 l20 -30 -20 -33 c-11 -18 -32 -55 -46 -83
-15 -27 -34 -61 -43 -74 -8 -13 -16 -29 -18 -35 -1 -6 -11 -36 -23 -66 -13
-38 -19 -77 -18 -125 1 -82 6 -99 45 -141 23 -26 39 -34 92 -42 65 -9 124 -1
136 18 4 6 14 10 23 10 46 0 255 202 280 269 3 9 20 34 39 57 18 23 33 44 33
47 0 3 15 28 32 54 18 26 40 60 48 74 8 15 49 71 90 124 41 53 88 113 103 133
15 21 54 66 86 102 31 36 60 73 64 83 3 9 10 17 15 17 14 0 107 122 123 160
17 43 18 81 2 98 -7 7 -13 19 -13 27 0 16 -70 45 -96 40 -71 -14 -83 -14 -77
0 3 8 9 15 13 15 5 0 31 21 59 48 118 112 308 272 322 272 7 0 22 8 33 18 43
38 154 102 221 127 39 15 83 34 99 43 39 20 127 19 142 -2 30 -42 -27 -246
-88 -319 -16 -17 -28 -38 -28 -44 0 -7 -4 -13 -10 -13 -5 0 -10 -5 -10 -11 0
-6 -9 -21 -19 -33 -99 -108 -175 -222 -192 -287 -17 -63 -9 -79 41 -79 54 0
100 20 149 67 22 21 46 43 53 49 17 15 47 50 83 99 16 22 33 42 36 45 3 3 19
25 34 50 15 25 34 49 41 53 8 4 14 16 14 27 0 10 4 20 8 22 17 7 71 135 85
200 18 83 13 207 -10 251 -51 101 -124 143 -238 139 -76 -3 -242 -43 -255 -62
-3 -4 -22 -13 -42 -19 -34 -11 -226 -126 -238 -141 -3 -4 -15 -10 -28 -14 -12
-4 -27 -16 -32 -27 -6 -10 -16 -19 -23 -19 -7 0 -32 -18 -56 -41 -25 -22 -51
-43 -58 -47 -9 -6 -287 -269 -355 -337 -4 -4 -22 4 -40 17 -19 14 -49 26 -70
27 -35 1 -154 -20 -190 -34 -15 -6 -18 -2 -18 24 0 21 -5 31 -15 31 -8 0 -15
7 -15 15 0 8 -15 18 -32 23 -40 11 -144 0 -160 -16 -19 -19 -38 -14 -38 11 0
26 -34 67 -55 67 -8 0 -15 4 -15 9 0 24 -79 16 -155 -14 -19 -8 -19 -7 -4 11
38 48 48 106 29 176 -9 30 -19 41 -58 59 -39 19 -63 23 -149 23 -57 0 -103 1
-103 2 0 2 14 26 32 54 22 35 33 67 36 105 7 89 -3 117 -66 181 -52 54 -63 61
-122 73 -88 17 -146 21 -199 10z m1319 -1368 c0 -5 -7 -14 -15 -21 -8 -7 -15
-17 -15 -22 0 -6 -18 -32 -40 -58 -22 -26 -40 -53 -40 -59 0 -6 -4 -11 -10
-11 -5 0 -10 -6 -10 -13 0 -7 -13 -31 -30 -53 -16 -21 -30 -45 -30 -51 0 -7
-4 -13 -10 -13 -5 0 -10 -7 -10 -15 0 -8 -4 -15 -9 -15 -5 0 -11 -6 -13 -12
-5 -21 -152 -217 -163 -217 -6 -1 -22 -12 -37 -26 -29 -27 -53 -33 -45 -12 3
6 13 32 22 57 10 25 24 52 32 61 7 8 13 22 13 31 0 8 11 25 25 38 14 13 25 31
25 40 0 9 11 27 25 40 14 13 25 29 25 36 0 7 16 31 35 54 19 23 35 46 35 52 0
6 9 20 19 32 11 11 30 32 43 46 64 71 178 142 178 111z"/>
</g>
</svg>
