<?xml version="1.0" encoding="UTF-8" standalone="no"?>
<svg
   xmlns:dc="http://purl.org/dc/elements/1.1/"
   xmlns:cc="http://creativecommons.org/ns#"
   xmlns:rdf="http://www.w3.org/1999/02/22-rdf-syntax-ns#"
   xmlns:svg="http://www.w3.org/2000/svg"
   xmlns="http://www.w3.org/2000/svg"
   xmlns:sodipodi="http://sodipodi.sourceforge.net/DTD/sodipodi-0.dtd"
   xmlns:inkscape="http://www.inkscape.org/namespaces/inkscape"
   width="2560"
   height="1540"
   viewBox="0 0 25600 15400"
   version="1.1"
   preserveAspectRatio="xMidYMid"
   id="svg38"
   sodipodi:docname="tailwind.svg"
   inkscape:version="0.92.4 (5da689c313, 2019-01-14)">
  <metadata
     id="metadata42">
    <rdf:RDF>
      <cc:Work
         rdf:about="">
        <dc:format>image/svg+xml</dc:format>
        <dc:type
           rdf:resource="http://purl.org/dc/dcmitype/StillImage" />
        <dc:title></dc:title>
      </cc:Work>
    </rdf:RDF>
  </metadata>
  <sodipodi:namedview
     pagecolor="#ffffff"
     bordercolor="#666666"
     borderopacity="1"
     objecttolerance="10"
     gridtolerance="10"
     guidetolerance="10"
     inkscape:pageopacity="0"
     inkscape:pageshadow="2"
     inkscape:window-width="1920"
     inkscape:window-height="1017"
     id="namedview40"
     showgrid="false"
     inkscape:zoom="0.24335493"
     inkscape:cx="1662.7808"
     inkscape:cy="654.17946"
     inkscape:window-x="-8"
     inkscape:window-y="-8"
     inkscape:window-maximized="1"
     inkscape:current-layer="svg38"
     scale-x="1"
     inkscape:pagecheckerboard="true" />
  <defs
     id="defs32">
    <linearGradient
       x1="-5.5082426"
       y1="63.45496"
       x2="198.29675"
       y2="133.96048"
       id="linearGradient-1"
       gradientTransform="scale(1.2909944,0.77459667)"
       gradientUnits="userSpaceOnUse">
      <stop
         stop-color="#0ED7B5"
         offset="100%"
         id="stop29" />
    </linearGradient>
  </defs>
  <g
     id="g36"
     transform="matrix(100.05879,0,0,100.47011,0,-29.178146)">
    <path
       d="M 128,0 C 93.866667,0 72.533333,17.066667 64,51.2 76.8,34.133333 91.733333,27.733333 108.8,32 c 9.73748,2.43437 16.69736,9.498548 24.40107,17.3184 C 145.75076,62.05677 160.27544,76.8 192,76.8 226.13333,76.8 247.46667,59.733333 256,25.6 243.2,42.666667 228.26667,49.066667 211.2,44.8 201.46252,42.36563 194.50264,35.301452 186.79893,27.4816 174.24924,14.74323 159.72456,0 128,0 Z M 64,76.8 C 29.866667,76.8 8.5333333,93.866667 0,128 c 12.8,-17.06667 27.733333,-23.46667 44.8,-19.2 9.737481,2.43437 16.697363,9.49855 24.401067,17.3184 C 81.750756,138.85677 96.275437,153.6 128,153.6 c 34.13333,0 55.46667,-17.06667 64,-51.2 -12.8,17.06667 -27.73333,23.46667 -44.8,19.2 -9.73748,-2.43437 -16.69736,-9.49855 -24.40107,-17.3184 C 110.24924,91.54323 95.724563,76.8 64,76.8 Z"
       id="path34"
       inkscape:connector-curvature="0"
       style="fill:url(#linearGradient-1)" />
  </g>
</svg>
